<?xml version="1.0" standalone="no"?><!DOCTYPE svg PUBLIC "-//W3C//DTD SVG 1.1//EN" "http://www.w3.org/Graphics/SVG/1.1/DTD/svg11.dtd"><svg t="1709807764651" class="icon" viewBox="0 0 3721 1024" version="1.1" xmlns="http://www.w3.org/2000/svg" p-id="5223" xmlns:xlink="http://www.w3.org/1999/xlink" width="726.7578125" height="200"><path d="M1987.429197 158.460395v106.992913H1690.76304l-17.027585 68.08108h277.210241v469.341074c4.856665 65.652747-31.597579 97.250326-111.849578 94.821994H1236.021217v-561.734736h274.781908l14.599252-68.081079H1199.537716v-109.421246h787.891481zM2541.849678 146.289476v31.597579h311.294666V270.33923H2223.270015V895.269123h-109.421246V177.887055h301.522822V146.289476h126.478087z m301.552079 432.857573v75.366077l-206.700829 124.049754 19.455917 9.71333c14.599252 9.71333 29.169246 12.141662 48.625163 9.71333h143.476414v92.422918H2665.899432a199.649887 199.649887 0 0 1-68.110337-12.170919l-75.366077-36.483501-65.682004 31.626836a277.356526 277.356526 0 0 1-80.222742 19.455917H2237.869266v-94.851251h97.279583c21.884249 0 38.911833-2.428332 48.625163-7.284997l36.483501-17.027584-160.503998-111.849578h-2.428332v-82.680332h586.047317z m877.856809-148.333078v104.56458h-522.822902l-102.106991 257.754324h488.767734c9.71333 2.428332 14.569995-2.428332 14.569994-12.170919v-121.562908h119.163833v155.647333c0 51.053495-26.740914 77.794409-77.823667 77.79441h-678.470235v-70.509412h-2.399075l114.27791-286.952828h-114.27791v-104.56458h761.121309z m-1901.618364 240.72674H1369.755044v126.448829h415.829989l4.300782 0.672911c22.118305 2.896445 31.012439-5.851403 30.046957-27.969708l-0.29257-4.300782v-94.85125z m797.60481-9.71333h-201.844164l51.082753 29.169246 53.481828 29.198504 97.279583-58.36775z m-795.205735-228.585078H1369.784301v126.44883h452.31349v-126.44883z m576.363244-148.333078v31.597579h301.522822v-29.169247h111.849578v29.169247h36.483501v92.422918h-36.483501v77.823666c-4.856665 43.739241-31.597579 65.652747-85.108664 65.652747h-437.684981v-138.619748h-38.911833v-92.422919h36.454243V284.909225h111.878835z m306.379487 126.448829H2403.259186v75.366077h260.182656l4.885922 0.78994c22.059791 2.925702 34.698823-3.3353 36.278702-17.144613l0.175542-3.101243V411.358054z m1016.476558-235.899332v104.564581h-761.121309V175.458722h761.121309z" fill="#000000" p-id="5224"></path><path d="M731.542465 684.033457l-173.201544 97.776952c-33.791855 18.431921-52.77966 53.540342-52.779659 90.872297V1024l413.986797-232.505518c9.742587-4.622609 16.6765-16.149874 16.6765-28.145251v-465.479148l-134.757822 74.312825c-33.791855 18.431921-52.77966 53.481828-52.77966 90.872296v190.960553c-0.468112 13.838569-7.431282 23.083787-17.144612 29.988443" fill="#DA4725" p-id="5225"></path><path d="M188.005594 657.468085v-191.57495a104.154982 104.154982 0 0 0-52.779659-91.164867L0 297.89934v464.601438c0 11.585779 7.402025 23.171558 16.6765 28.262279L430.663297 1024v-151.785407a104.154982 104.154982 0 0 0-52.779659-91.164866l-173.201544-95.816732c-9.71333-6.933913-16.6765-16.179131-16.6765-27.76491" fill="#028DCF" p-id="5226"></path><path d="M671.126724 104.568969L494.268053 3.573745a43.475928 43.475928 0 0 0-34.52328 0L37.448982 244.154199l137.625011 76.682643c34.523281 19.046318 76.126759 19.046318 108.250964 0l176.887928-100.995224c2.340561-2.369818 4.739637-2.369818 7.577567-2.369819 9.947386-2.399075 17.027584-2.399075 26.945713 2.369819l176.858671 100.995224c34.523281 19.046318 76.126759 19.046318 108.280222 0l137.62501-76.682643-246.373344-139.58523z" fill="#72AE2C" p-id="5227"></path></svg>